<mxfile host="app.diagrams.net" agent="Mozilla/5.0 (Macintosh; Intel Mac OS X 10_15_7) AppleWebKit/537.36 (KHTML, like Gecko) Chrome/127.0.0.0 Safari/537.36" version="24.7.6">
  <diagram name="Страница — 1" id="nklOkvfzrRtws5OwsM_5">
    <mxGraphModel dx="575" dy="325" grid="1" gridSize="10" guides="1" tooltips="1" connect="1" arrows="1" fold="1" page="1" pageScale="1" pageWidth="827" pageHeight="1169" math="0" shadow="0">
      <root>
        <mxCell id="0" />
        <mxCell id="1" parent="0" />
        <mxCell id="sufuKQDrphvWgy2W6EgG-2" value="Требуется сделать &lt;br&gt;merge в gitlab/project*" style="points=[[0.145,0.145,0],[0.5,0,0],[0.855,0.145,0],[1,0.5,0],[0.855,0.855,0],[0.5,1,0],[0.145,0.855,0],[0,0.5,0]];shape=mxgraph.bpmn.event;html=1;verticalLabelPosition=bottom;labelBackgroundColor=#ffffff;verticalAlign=top;align=center;perimeter=ellipsePerimeter;outlineConnect=0;aspect=fixed;outline=standard;symbol=general;" vertex="1" parent="1">
          <mxGeometry x="80" y="80" width="40" height="40" as="geometry" />
        </mxCell>
        <mxCell id="sufuKQDrphvWgy2W6EgG-3" value="Пользователь делает Merge Request" style="points=[[0.25,0,0],[0.5,0,0],[0.75,0,0],[1,0.25,0],[1,0.5,0],[1,0.75,0],[0.75,1,0],[0.5,1,0],[0.25,1,0],[0,0.75,0],[0,0.5,0],[0,0.25,0]];shape=mxgraph.bpmn.task;whiteSpace=wrap;rectStyle=rounded;size=10;html=1;container=1;expand=0;collapsible=0;taskMarker=abstract;" vertex="1" parent="1">
          <mxGeometry x="200" y="60" width="120" height="80" as="geometry" />
        </mxCell>
        <mxCell id="sufuKQDrphvWgy2W6EgG-8" style="edgeStyle=orthogonalEdgeStyle;rounded=0;orthogonalLoop=1;jettySize=auto;html=1;entryX=0;entryY=0.5;entryDx=0;entryDy=0;entryPerimeter=0;" edge="1" parent="1" source="sufuKQDrphvWgy2W6EgG-2" target="sufuKQDrphvWgy2W6EgG-3">
          <mxGeometry relative="1" as="geometry" />
        </mxCell>
        <mxCell id="sufuKQDrphvWgy2W6EgG-11" value="&lt;div style=&quot;background-color:#ffffff;color:#080808&quot;&gt;&lt;pre style=&quot;font-family:&#39;JetBrains Mono&#39;,monospace;font-size:9,8pt;&quot;&gt;&lt;span style=&quot;color:#000000;&quot;&gt;WBMergeRequestReviewersNotifier&lt;/span&gt;&lt;/pre&gt;&lt;/div&gt;" style="swimlane;html=1;childLayout=stackLayout;resizeParent=1;resizeParentMax=0;horizontal=1;startSize=20;horizontalStack=0;whiteSpace=wrap;movable=1;resizable=1;rotatable=1;deletable=1;editable=1;locked=0;connectable=1;fillStyle=hatch;" vertex="1" parent="1">
          <mxGeometry x="10" y="20" width="5070" height="610" as="geometry" />
        </mxCell>
        <mxCell id="sufuKQDrphvWgy2W6EgG-12" value="User&amp;amp;interface GIT" style="swimlane;html=1;startSize=20;horizontal=0;" vertex="1" parent="sufuKQDrphvWgy2W6EgG-11">
          <mxGeometry y="20" width="5070" height="120" as="geometry">
            <mxRectangle y="20" width="480" height="30" as="alternateBounds" />
          </mxGeometry>
        </mxCell>
        <mxCell id="sufuKQDrphvWgy2W6EgG-22" value="" style="dashed=1;dashPattern=8 4;endArrow=blockThin;endFill=1;startArrow=oval;startFill=0;endSize=6;startSize=4;html=1;rounded=0;entryX=0.5;entryY=0;entryDx=0;entryDy=0;entryPerimeter=0;" edge="1" parent="sufuKQDrphvWgy2W6EgG-12" target="sufuKQDrphvWgy2W6EgG-21">
          <mxGeometry width="160" relative="1" as="geometry">
            <mxPoint x="310" y="60" as="sourcePoint" />
            <mxPoint x="470" y="60" as="targetPoint" />
            <Array as="points">
              <mxPoint x="390" y="60" />
            </Array>
          </mxGeometry>
        </mxCell>
        <mxCell id="sufuKQDrphvWgy2W6EgG-13" value="GitLab" style="swimlane;html=1;startSize=20;horizontal=0;" vertex="1" parent="sufuKQDrphvWgy2W6EgG-11">
          <mxGeometry y="140" width="5070" height="120" as="geometry" />
        </mxCell>
        <mxCell id="sufuKQDrphvWgy2W6EgG-20" value="Создание&amp;nbsp;&lt;br&gt;WebHook*&lt;br&gt;уведомление о событии в git" style="points=[[0.25,0,0],[0.5,0,0],[0.75,0,0],[1,0.25,0],[1,0.5,0],[1,0.75,0],[0.75,1,0],[0.5,1,0],[0.25,1,0],[0,0.75,0],[0,0.5,0],[0,0.25,0]];shape=mxgraph.bpmn.task;whiteSpace=wrap;rectStyle=rounded;size=10;html=1;container=1;expand=0;collapsible=0;taskMarker=service;" vertex="1" parent="sufuKQDrphvWgy2W6EgG-13">
          <mxGeometry x="520" y="20" width="120" height="80" as="geometry" />
        </mxCell>
        <mxCell id="sufuKQDrphvWgy2W6EgG-21" value="Фиксирование события" style="points=[[0.25,0,0],[0.5,0,0],[0.75,0,0],[1,0.25,0],[1,0.5,0],[1,0.75,0],[0.75,1,0],[0.5,1,0],[0.25,1,0],[0,0.75,0],[0,0.5,0],[0,0.25,0]];shape=mxgraph.bpmn.task;whiteSpace=wrap;rectStyle=rounded;size=10;html=1;container=1;expand=0;collapsible=0;taskMarker=service;" vertex="1" parent="sufuKQDrphvWgy2W6EgG-13">
          <mxGeometry x="330" y="20" width="120" height="80" as="geometry" />
        </mxCell>
        <mxCell id="sufuKQDrphvWgy2W6EgG-23" style="edgeStyle=orthogonalEdgeStyle;rounded=0;orthogonalLoop=1;jettySize=auto;html=1;entryX=0;entryY=0.5;entryDx=0;entryDy=0;entryPerimeter=0;" edge="1" parent="sufuKQDrphvWgy2W6EgG-13" source="sufuKQDrphvWgy2W6EgG-21" target="sufuKQDrphvWgy2W6EgG-20">
          <mxGeometry relative="1" as="geometry" />
        </mxCell>
        <mxCell id="sufuKQDrphvWgy2W6EgG-25" value="" style="endArrow=blockThin;html=1;labelPosition=left;verticalLabelPosition=middle;align=right;verticalAlign=middle;dashed=1;dashPattern=8 4;endFill=0;startArrow=oval;startFill=0;endSize=6;startSize=4;rounded=0;entryX=0.5;entryY=0;entryDx=0;entryDy=0;entryPerimeter=0;" edge="1" parent="sufuKQDrphvWgy2W6EgG-13" target="sufuKQDrphvWgy2W6EgG-24">
          <mxGeometry relative="1" as="geometry">
            <mxPoint x="640" y="60" as="sourcePoint" />
            <mxPoint x="800" y="60" as="targetPoint" />
            <Array as="points">
              <mxPoint x="740" y="60" />
            </Array>
          </mxGeometry>
        </mxCell>
        <mxCell id="sufuKQDrphvWgy2W6EgG-69" value="CODEOWNERS" style="swimlane;fontStyle=0;childLayout=stackLayout;horizontal=1;startSize=30;horizontalStack=0;resizeParent=1;resizeParentMax=0;resizeLast=0;collapsible=1;marginBottom=0;whiteSpace=wrap;html=1;rounded=1;strokeColor=default;align=center;verticalAlign=middle;fontFamily=Helvetica;fontSize=12;fontColor=default;fillColor=default;" vertex="1" parent="sufuKQDrphvWgy2W6EgG-13">
          <mxGeometry x="3090" y="15" width="140" height="90" as="geometry">
            <mxRectangle x="410" y="293" width="130" height="30" as="alternateBounds" />
          </mxGeometry>
        </mxCell>
        <mxCell id="sufuKQDrphvWgy2W6EgG-88" value="Trusted Reviewers" style="text;strokeColor=none;fillColor=none;align=left;verticalAlign=middle;spacingLeft=4;spacingRight=4;overflow=hidden;points=[[0,0.5],[1,0.5]];portConstraint=eastwest;rotatable=0;whiteSpace=wrap;html=1;fontFamily=Helvetica;fontSize=12;fontColor=default;" vertex="1" parent="sufuKQDrphvWgy2W6EgG-69">
          <mxGeometry y="30" width="140" height="30" as="geometry" />
        </mxCell>
        <mxCell id="sufuKQDrphvWgy2W6EgG-70" value="Streams[reviewers]" style="text;strokeColor=none;fillColor=none;align=left;verticalAlign=middle;spacingLeft=4;spacingRight=4;overflow=hidden;points=[[0,0.5],[1,0.5]];portConstraint=eastwest;rotatable=0;whiteSpace=wrap;html=1;fontFamily=Helvetica;fontSize=12;fontColor=default;" vertex="1" parent="sufuKQDrphvWgy2W6EgG-69">
          <mxGeometry y="60" width="140" height="30" as="geometry" />
        </mxCell>
        <mxCell id="sufuKQDrphvWgy2W6EgG-144" value="CI BOT публикует комментарий - ревьюеров" style="points=[[0.25,0,0],[0.5,0,0],[0.75,0,0],[1,0.25,0],[1,0.5,0],[1,0.75,0],[0.75,1,0],[0.5,1,0],[0.25,1,0],[0,0.75,0],[0,0.5,0],[0,0.25,0]];shape=mxgraph.bpmn.task;whiteSpace=wrap;rectStyle=rounded;size=10;html=1;container=1;expand=0;collapsible=0;taskMarker=service;" vertex="1" parent="sufuKQDrphvWgy2W6EgG-13">
          <mxGeometry x="4270" y="20" width="120" height="80" as="geometry" />
        </mxCell>
        <mxCell id="sufuKQDrphvWgy2W6EgG-153" value="CI BOT публикует комментарий - лейбел стрима" style="points=[[0.25,0,0],[0.5,0,0],[0.75,0,0],[1,0.25,0],[1,0.5,0],[1,0.75,0],[0.75,1,0],[0.5,1,0],[0.25,1,0],[0,0.75,0],[0,0.5,0],[0,0.25,0]];shape=mxgraph.bpmn.task;whiteSpace=wrap;rectStyle=rounded;size=10;html=1;container=1;expand=0;collapsible=0;taskMarker=service;" vertex="1" parent="sufuKQDrphvWgy2W6EgG-13">
          <mxGeometry x="4410" y="20" width="120" height="80" as="geometry" />
        </mxCell>
        <mxCell id="sufuKQDrphvWgy2W6EgG-87" value="" style="dashed=1;dashPattern=8 4;endArrow=blockThin;endFill=1;startArrow=oval;startFill=0;endSize=6;startSize=4;html=1;rounded=0;exitX=0.383;exitY=0.019;exitDx=0;exitDy=0;exitPerimeter=0;entryX=0;entryY=0.25;entryDx=0;entryDy=0;" edge="1" parent="sufuKQDrphvWgy2W6EgG-11" source="sufuKQDrphvWgy2W6EgG-85" target="sufuKQDrphvWgy2W6EgG-69">
          <mxGeometry width="160" relative="1" as="geometry">
            <mxPoint x="3100" y="480" as="sourcePoint" />
            <mxPoint x="3260" y="480" as="targetPoint" />
            <Array as="points">
              <mxPoint x="3030" y="178" />
            </Array>
          </mxGeometry>
        </mxCell>
        <mxCell id="sufuKQDrphvWgy2W6EgG-89" style="edgeStyle=orthogonalEdgeStyle;rounded=0;orthogonalLoop=1;jettySize=auto;html=1;entryX=0.633;entryY=0.01;entryDx=0;entryDy=0;entryPerimeter=0;dashed=1;dashPattern=8 8;" edge="1" parent="sufuKQDrphvWgy2W6EgG-11" source="sufuKQDrphvWgy2W6EgG-88" target="sufuKQDrphvWgy2W6EgG-85">
          <mxGeometry relative="1" as="geometry" />
        </mxCell>
        <mxCell id="sufuKQDrphvWgy2W6EgG-146" style="edgeStyle=orthogonalEdgeStyle;rounded=0;orthogonalLoop=1;jettySize=auto;html=1;entryX=0.5;entryY=1;entryDx=0;entryDy=0;entryPerimeter=0;dashed=1;dashPattern=12 12;exitX=0.5;exitY=0;exitDx=0;exitDy=0;" edge="1" parent="sufuKQDrphvWgy2W6EgG-11" source="sufuKQDrphvWgy2W6EgG-142" target="sufuKQDrphvWgy2W6EgG-144">
          <mxGeometry relative="1" as="geometry" />
        </mxCell>
        <mxCell id="sufuKQDrphvWgy2W6EgG-14" value="K8S/ApiService" style="swimlane;html=1;startSize=20;horizontal=0;movable=1;resizable=1;rotatable=1;deletable=1;editable=1;locked=0;connectable=1;dashed=1;dashPattern=8 8;" vertex="1" parent="sufuKQDrphvWgy2W6EgG-11">
          <mxGeometry y="260" width="5070" height="350" as="geometry" />
        </mxCell>
        <mxCell id="sufuKQDrphvWgy2W6EgG-28" value="" style="edgeStyle=orthogonalEdgeStyle;rounded=0;orthogonalLoop=1;jettySize=auto;html=1;entryX=0;entryY=0.5;entryDx=0;entryDy=0;entryPerimeter=0;movable=1;resizable=1;rotatable=1;deletable=1;editable=1;locked=0;connectable=1;" edge="1" parent="sufuKQDrphvWgy2W6EgG-14" source="sufuKQDrphvWgy2W6EgG-24" target="sufuKQDrphvWgy2W6EgG-29">
          <mxGeometry relative="1" as="geometry">
            <mxPoint x="880" y="150" as="targetPoint" />
          </mxGeometry>
        </mxCell>
        <mxCell id="sufuKQDrphvWgy2W6EgG-24" value="Метод hook/dispatch_handler" style="points=[[0.25,0,0],[0.5,0,0],[0.75,0,0],[1,0.25,0],[1,0.5,0],[1,0.75,0],[0.75,1,0],[0.5,1,0],[0.25,1,0],[0,0.75,0],[0,0.5,0],[0,0.25,0]];shape=mxgraph.bpmn.task;whiteSpace=wrap;rectStyle=rounded;size=10;html=1;container=1;expand=0;collapsible=0;taskMarker=service;movable=1;resizable=1;rotatable=1;deletable=1;editable=1;locked=0;connectable=1;" vertex="1" parent="sufuKQDrphvWgy2W6EgG-14">
          <mxGeometry x="680" y="110" width="120" height="80" as="geometry" />
        </mxCell>
        <mxCell id="sufuKQDrphvWgy2W6EgG-31" value="" style="edgeStyle=orthogonalEdgeStyle;rounded=0;orthogonalLoop=1;jettySize=auto;html=1;entryX=0;entryY=0.5;entryDx=0;entryDy=0;entryPerimeter=0;movable=1;resizable=1;rotatable=1;deletable=1;editable=1;locked=0;connectable=1;" edge="1" parent="sufuKQDrphvWgy2W6EgG-14" source="sufuKQDrphvWgy2W6EgG-29" target="sufuKQDrphvWgy2W6EgG-32">
          <mxGeometry relative="1" as="geometry">
            <mxPoint x="1049.9999999999998" y="150" as="targetPoint" />
          </mxGeometry>
        </mxCell>
        <mxCell id="sufuKQDrphvWgy2W6EgG-29" value="Определение события" style="points=[[0.25,0,0],[0.5,0,0],[0.75,0,0],[1,0.25,0],[1,0.5,0],[1,0.75,0],[0.75,1,0],[0.5,1,0],[0.25,1,0],[0,0.75,0],[0,0.5,0],[0,0.25,0]];shape=mxgraph.bpmn.task;whiteSpace=wrap;rectStyle=rounded;size=10;html=1;container=1;expand=0;collapsible=0;taskMarker=abstract;movable=1;resizable=1;rotatable=1;deletable=1;editable=1;locked=0;connectable=1;" vertex="1" parent="sufuKQDrphvWgy2W6EgG-14">
          <mxGeometry x="860" y="110" width="120" height="80" as="geometry" />
        </mxCell>
        <mxCell id="sufuKQDrphvWgy2W6EgG-35" style="edgeStyle=orthogonalEdgeStyle;rounded=0;orthogonalLoop=1;jettySize=auto;html=1;movable=1;resizable=1;rotatable=1;deletable=1;editable=1;locked=0;connectable=1;" edge="1" parent="sufuKQDrphvWgy2W6EgG-14" source="sufuKQDrphvWgy2W6EgG-32" target="sufuKQDrphvWgy2W6EgG-33">
          <mxGeometry relative="1" as="geometry" />
        </mxCell>
        <mxCell id="sufuKQDrphvWgy2W6EgG-32" value="Определение обработчика события" style="points=[[0.25,0,0],[0.5,0,0],[0.75,0,0],[1,0.25,0],[1,0.5,0],[1,0.75,0],[0.75,1,0],[0.5,1,0],[0.25,1,0],[0,0.75,0],[0,0.5,0],[0,0.25,0]];shape=mxgraph.bpmn.task;whiteSpace=wrap;rectStyle=rounded;size=10;html=1;container=1;expand=0;collapsible=0;taskMarker=abstract;movable=1;resizable=1;rotatable=1;deletable=1;editable=1;locked=0;connectable=1;" vertex="1" parent="sufuKQDrphvWgy2W6EgG-14">
          <mxGeometry x="1040" y="110" width="120" height="80" as="geometry" />
        </mxCell>
        <mxCell id="sufuKQDrphvWgy2W6EgG-56" style="edgeStyle=orthogonalEdgeStyle;rounded=0;orthogonalLoop=1;jettySize=auto;html=1;entryX=0;entryY=0.5;entryDx=0;entryDy=0;" edge="1" parent="sufuKQDrphvWgy2W6EgG-14" source="sufuKQDrphvWgy2W6EgG-33" target="sufuKQDrphvWgy2W6EgG-50">
          <mxGeometry relative="1" as="geometry" />
        </mxCell>
        <mxCell id="sufuKQDrphvWgy2W6EgG-33" value="Проверка события на атрибуты для обработки" style="points=[[0.25,0,0],[0.5,0,0],[0.75,0,0],[1,0.25,0],[1,0.5,0],[1,0.75,0],[0.75,1,0],[0.5,1,0],[0.25,1,0],[0,0.75,0],[0,0.5,0],[0,0.25,0]];shape=mxgraph.bpmn.task;whiteSpace=wrap;rectStyle=rounded;size=10;html=1;container=1;expand=0;collapsible=0;taskMarker=abstract;movable=1;resizable=1;rotatable=1;deletable=1;editable=1;locked=0;connectable=1;" vertex="1" parent="sufuKQDrphvWgy2W6EgG-14">
          <mxGeometry x="1220" y="110" width="120" height="80" as="geometry" />
        </mxCell>
        <mxCell id="sufuKQDrphvWgy2W6EgG-45" value="" style="edgeStyle=orthogonalEdgeStyle;rounded=0;orthogonalLoop=1;jettySize=auto;html=1;" edge="1" parent="sufuKQDrphvWgy2W6EgG-14" source="sufuKQDrphvWgy2W6EgG-42" target="sufuKQDrphvWgy2W6EgG-48">
          <mxGeometry relative="1" as="geometry">
            <mxPoint x="1699.9999999999998" y="220" as="targetPoint" />
          </mxGeometry>
        </mxCell>
        <mxCell id="sufuKQDrphvWgy2W6EgG-49" value="true" style="edgeLabel;html=1;align=center;verticalAlign=middle;resizable=0;points=[];" vertex="1" connectable="0" parent="sufuKQDrphvWgy2W6EgG-45">
          <mxGeometry x="-0.1844" y="1" relative="1" as="geometry">
            <mxPoint as="offset" />
          </mxGeometry>
        </mxCell>
        <mxCell id="sufuKQDrphvWgy2W6EgG-61" value="false" style="edgeStyle=orthogonalEdgeStyle;rounded=0;orthogonalLoop=1;jettySize=auto;html=1;" edge="1" parent="sufuKQDrphvWgy2W6EgG-14" source="sufuKQDrphvWgy2W6EgG-42" target="sufuKQDrphvWgy2W6EgG-54">
          <mxGeometry relative="1" as="geometry" />
        </mxCell>
        <mxCell id="sufuKQDrphvWgy2W6EgG-42" value="MR является cherry-pick" style="rhombus;whiteSpace=wrap;html=1;resizable=1;labelPosition=center;verticalLabelPosition=top;align=center;verticalAlign=bottom;" vertex="1" parent="sufuKQDrphvWgy2W6EgG-14">
          <mxGeometry x="1570" y="110" width="80" height="80" as="geometry" />
        </mxCell>
        <mxCell id="sufuKQDrphvWgy2W6EgG-46" value="Схема описывает событие MergeRequest - для понимания процесса вставлены два поинта о сервисе что твориться под капотом - оркестратор и выбор обработчика" style="text;html=1;strokeColor=none;fillColor=none;align=center;verticalAlign=middle;whiteSpace=wrap;rounded=0;" vertex="1" parent="sufuKQDrphvWgy2W6EgG-14">
          <mxGeometry x="860" y="30" width="260" height="30" as="geometry" />
        </mxCell>
        <mxCell id="sufuKQDrphvWgy2W6EgG-48" value="Игнорируем MR" style="points=[[0.145,0.145,0],[0.5,0,0],[0.855,0.145,0],[1,0.5,0],[0.855,0.855,0],[0.5,1,0],[0.145,0.855,0],[0,0.5,0]];shape=mxgraph.bpmn.event;html=1;verticalLabelPosition=bottom;labelBackgroundColor=#ffffff;verticalAlign=top;align=center;perimeter=ellipsePerimeter;outlineConnect=0;aspect=fixed;outline=end;symbol=error;" vertex="1" parent="sufuKQDrphvWgy2W6EgG-14">
          <mxGeometry x="1585" y="230" width="50" height="50" as="geometry" />
        </mxCell>
        <mxCell id="sufuKQDrphvWgy2W6EgG-57" value="true" style="edgeStyle=orthogonalEdgeStyle;rounded=0;orthogonalLoop=1;jettySize=auto;html=1;entryX=0;entryY=0.5;entryDx=0;entryDy=0;" edge="1" parent="sufuKQDrphvWgy2W6EgG-14" source="sufuKQDrphvWgy2W6EgG-50" target="sufuKQDrphvWgy2W6EgG-42">
          <mxGeometry relative="1" as="geometry" />
        </mxCell>
        <mxCell id="sufuKQDrphvWgy2W6EgG-50" value="Cтатус MR in [OPEN, UPDATE]" style="rhombus;whiteSpace=wrap;html=1;verticalAlign=bottom;resizable=1;labelPosition=center;verticalLabelPosition=top;align=center;" vertex="1" parent="sufuKQDrphvWgy2W6EgG-14">
          <mxGeometry x="1430" y="110" width="80" height="80" as="geometry" />
        </mxCell>
        <mxCell id="sufuKQDrphvWgy2W6EgG-52" value="Игнорируем MR" style="points=[[0.145,0.145,0],[0.5,0,0],[0.855,0.145,0],[1,0.5,0],[0.855,0.855,0],[0.5,1,0],[0.145,0.855,0],[0,0.5,0]];shape=mxgraph.bpmn.event;html=1;verticalLabelPosition=bottom;labelBackgroundColor=#ffffff;verticalAlign=top;align=center;perimeter=ellipsePerimeter;outlineConnect=0;aspect=fixed;outline=end;symbol=error;" vertex="1" parent="sufuKQDrphvWgy2W6EgG-14">
          <mxGeometry x="1445" y="230" width="50" height="50" as="geometry" />
        </mxCell>
        <mxCell id="sufuKQDrphvWgy2W6EgG-53" value="false" style="edgeStyle=orthogonalEdgeStyle;rounded=0;orthogonalLoop=1;jettySize=auto;html=1;entryX=0.5;entryY=0;entryDx=0;entryDy=0;entryPerimeter=0;exitX=0.5;exitY=1;exitDx=0;exitDy=0;" edge="1" parent="sufuKQDrphvWgy2W6EgG-14" source="sufuKQDrphvWgy2W6EgG-50" target="sufuKQDrphvWgy2W6EgG-52">
          <mxGeometry relative="1" as="geometry" />
        </mxCell>
        <mxCell id="sufuKQDrphvWgy2W6EgG-59" value="" style="edgeStyle=orthogonalEdgeStyle;rounded=0;orthogonalLoop=1;jettySize=auto;html=1;" edge="1" parent="sufuKQDrphvWgy2W6EgG-14" source="sufuKQDrphvWgy2W6EgG-54" target="sufuKQDrphvWgy2W6EgG-58">
          <mxGeometry relative="1" as="geometry" />
        </mxCell>
        <mxCell id="sufuKQDrphvWgy2W6EgG-60" value="true" style="edgeLabel;html=1;align=center;verticalAlign=middle;resizable=0;points=[];" vertex="1" connectable="0" parent="sufuKQDrphvWgy2W6EgG-59">
          <mxGeometry x="-0.2815" relative="1" as="geometry">
            <mxPoint as="offset" />
          </mxGeometry>
        </mxCell>
        <mxCell id="sufuKQDrphvWgy2W6EgG-63" value="false" style="edgeStyle=orthogonalEdgeStyle;rounded=0;orthogonalLoop=1;jettySize=auto;html=1;" edge="1" parent="sufuKQDrphvWgy2W6EgG-14" source="sufuKQDrphvWgy2W6EgG-54">
          <mxGeometry relative="1" as="geometry">
            <mxPoint x="1850" y="150" as="targetPoint" />
          </mxGeometry>
        </mxCell>
        <mxCell id="sufuKQDrphvWgy2W6EgG-54" value="&lt;pre style=&quot;color: rgb(8, 8, 8); font-size: 8px; text-align: right; font-family: &amp;quot;JetBrains Mono&amp;quot;, monospace;&quot;&gt;&lt;span style=&quot;color: rgb(0, 0, 0);&quot;&gt;webhook&lt;/span&gt;.&lt;/pre&gt;&lt;pre style=&quot;color: rgb(8, 8, 8); font-size: 8px; text-align: right; font-family: &amp;quot;JetBrains Mono&amp;quot;, monospace;&quot;&gt;object_attributes.&lt;/pre&gt;&lt;pre style=&quot;color: rgb(8, 8, 8); font-size: 8px; text-align: right; font-family: &amp;quot;JetBrains Mono&amp;quot;, monospace;&quot;&gt;action_is_after_merge&lt;/pre&gt;" style="rhombus;whiteSpace=wrap;html=1;verticalAlign=bottom;resizable=1;labelPosition=center;verticalLabelPosition=top;align=center;fillColor=#f8cecc;strokeColor=#b85450;" vertex="1" parent="sufuKQDrphvWgy2W6EgG-14">
          <mxGeometry x="1710" y="110" width="80" height="80" as="geometry" />
        </mxCell>
        <mxCell id="sufuKQDrphvWgy2W6EgG-58" value="Игнорируем MR" style="points=[[0.145,0.145,0],[0.5,0,0],[0.855,0.145,0],[1,0.5,0],[0.855,0.855,0],[0.5,1,0],[0.145,0.855,0],[0,0.5,0]];shape=mxgraph.bpmn.event;html=1;verticalLabelPosition=bottom;labelBackgroundColor=#ffffff;verticalAlign=top;align=center;perimeter=ellipsePerimeter;outlineConnect=0;aspect=fixed;outline=end;symbol=error;" vertex="1" parent="sufuKQDrphvWgy2W6EgG-14">
          <mxGeometry x="1725" y="230" width="50" height="50" as="geometry" />
        </mxCell>
        <mxCell id="sufuKQDrphvWgy2W6EgG-66" value="" style="edgeStyle=orthogonalEdgeStyle;rounded=0;orthogonalLoop=1;jettySize=auto;html=1;" edge="1" parent="sufuKQDrphvWgy2W6EgG-14" source="sufuKQDrphvWgy2W6EgG-64" target="sufuKQDrphvWgy2W6EgG-65">
          <mxGeometry relative="1" as="geometry" />
        </mxCell>
        <mxCell id="sufuKQDrphvWgy2W6EgG-64" value="Обработка события - MR*" style="points=[[0.25,0,0],[0.5,0,0],[0.75,0,0],[1,0.25,0],[1,0.5,0],[1,0.75,0],[0.75,1,0],[0.5,1,0],[0.25,1,0],[0,0.75,0],[0,0.5,0],[0,0.25,0]];shape=mxgraph.bpmn.task;whiteSpace=wrap;rectStyle=rounded;size=10;html=1;container=1;expand=0;collapsible=0;taskMarker=abstract;" vertex="1" parent="sufuKQDrphvWgy2W6EgG-14">
          <mxGeometry x="1850" y="110" width="120" height="80" as="geometry" />
        </mxCell>
        <mxCell id="sufuKQDrphvWgy2W6EgG-68" value="" style="edgeStyle=orthogonalEdgeStyle;rounded=0;orthogonalLoop=1;jettySize=auto;html=1;labelPosition=center;verticalLabelPosition=top;align=center;verticalAlign=bottom;" edge="1" parent="sufuKQDrphvWgy2W6EgG-14" source="sufuKQDrphvWgy2W6EgG-65" target="sufuKQDrphvWgy2W6EgG-67">
          <mxGeometry relative="1" as="geometry" />
        </mxCell>
        <mxCell id="sufuKQDrphvWgy2W6EgG-112" value="true" style="edgeLabel;html=1;align=center;verticalAlign=middle;resizable=0;points=[];" vertex="1" connectable="0" parent="sufuKQDrphvWgy2W6EgG-68">
          <mxGeometry x="-0.2902" y="1" relative="1" as="geometry">
            <mxPoint as="offset" />
          </mxGeometry>
        </mxCell>
        <mxCell id="sufuKQDrphvWgy2W6EgG-106" value="" style="edgeStyle=orthogonalEdgeStyle;rounded=0;orthogonalLoop=1;jettySize=auto;html=1;" edge="1" parent="sufuKQDrphvWgy2W6EgG-14" source="sufuKQDrphvWgy2W6EgG-65" target="sufuKQDrphvWgy2W6EgG-92">
          <mxGeometry relative="1" as="geometry" />
        </mxCell>
        <mxCell id="sufuKQDrphvWgy2W6EgG-109" value="false" style="edgeLabel;html=1;align=center;verticalAlign=middle;resizable=0;points=[];" vertex="1" connectable="0" parent="sufuKQDrphvWgy2W6EgG-106">
          <mxGeometry x="-0.4424" relative="1" as="geometry">
            <mxPoint as="offset" />
          </mxGeometry>
        </mxCell>
        <mxCell id="sufuKQDrphvWgy2W6EgG-65" value="MR имеет атрибуты" style="rhombus;whiteSpace=wrap;html=1;labelPosition=center;verticalLabelPosition=top;align=center;verticalAlign=bottom;" vertex="1" parent="sufuKQDrphvWgy2W6EgG-14">
          <mxGeometry x="2030" y="110" width="80" height="80" as="geometry" />
        </mxCell>
        <mxCell id="sufuKQDrphvWgy2W6EgG-73" value="" style="edgeStyle=orthogonalEdgeStyle;rounded=0;orthogonalLoop=1;jettySize=auto;html=1;labelPosition=center;verticalLabelPosition=top;align=center;verticalAlign=bottom;" edge="1" parent="sufuKQDrphvWgy2W6EgG-14" source="sufuKQDrphvWgy2W6EgG-67" target="sufuKQDrphvWgy2W6EgG-72">
          <mxGeometry relative="1" as="geometry" />
        </mxCell>
        <mxCell id="sufuKQDrphvWgy2W6EgG-113" value="true" style="edgeLabel;html=1;align=center;verticalAlign=middle;resizable=0;points=[];" vertex="1" connectable="0" parent="sufuKQDrphvWgy2W6EgG-73">
          <mxGeometry x="-0.0941" y="4" relative="1" as="geometry">
            <mxPoint as="offset" />
          </mxGeometry>
        </mxCell>
        <mxCell id="sufuKQDrphvWgy2W6EgG-105" value="" style="edgeStyle=orthogonalEdgeStyle;rounded=0;orthogonalLoop=1;jettySize=auto;html=1;" edge="1" parent="sufuKQDrphvWgy2W6EgG-14" source="sufuKQDrphvWgy2W6EgG-67" target="sufuKQDrphvWgy2W6EgG-93">
          <mxGeometry relative="1" as="geometry" />
        </mxCell>
        <mxCell id="sufuKQDrphvWgy2W6EgG-110" value="false" style="edgeLabel;html=1;align=center;verticalAlign=middle;resizable=0;points=[];" vertex="1" connectable="0" parent="sufuKQDrphvWgy2W6EgG-105">
          <mxGeometry x="0.0941" y="-1" relative="1" as="geometry">
            <mxPoint as="offset" />
          </mxGeometry>
        </mxCell>
        <mxCell id="sufuKQDrphvWgy2W6EgG-67" value="В проекте есть файл CODEOWNERS" style="rhombus;whiteSpace=wrap;html=1;labelPosition=center;verticalLabelPosition=top;align=center;verticalAlign=bottom;" vertex="1" parent="sufuKQDrphvWgy2W6EgG-14">
          <mxGeometry x="2170" y="110" width="80" height="80" as="geometry" />
        </mxCell>
        <mxCell id="sufuKQDrphvWgy2W6EgG-79" value="" style="edgeStyle=orthogonalEdgeStyle;rounded=0;orthogonalLoop=1;jettySize=auto;html=1;" edge="1" parent="sufuKQDrphvWgy2W6EgG-14" source="sufuKQDrphvWgy2W6EgG-72" target="sufuKQDrphvWgy2W6EgG-78">
          <mxGeometry relative="1" as="geometry" />
        </mxCell>
        <mxCell id="sufuKQDrphvWgy2W6EgG-114" value="false" style="edgeLabel;html=1;align=center;verticalAlign=middle;resizable=0;points=[];" vertex="1" connectable="0" parent="sufuKQDrphvWgy2W6EgG-79">
          <mxGeometry x="-0.0013" relative="1" as="geometry">
            <mxPoint as="offset" />
          </mxGeometry>
        </mxCell>
        <mxCell id="sufuKQDrphvWgy2W6EgG-104" value="" style="edgeStyle=orthogonalEdgeStyle;rounded=0;orthogonalLoop=1;jettySize=auto;html=1;" edge="1" parent="sufuKQDrphvWgy2W6EgG-14" source="sufuKQDrphvWgy2W6EgG-72" target="sufuKQDrphvWgy2W6EgG-94">
          <mxGeometry relative="1" as="geometry" />
        </mxCell>
        <mxCell id="sufuKQDrphvWgy2W6EgG-111" value="true" style="edgeLabel;html=1;align=center;verticalAlign=middle;resizable=0;points=[];" vertex="1" connectable="0" parent="sufuKQDrphvWgy2W6EgG-104">
          <mxGeometry x="0.0941" y="-1" relative="1" as="geometry">
            <mxPoint as="offset" />
          </mxGeometry>
        </mxCell>
        <mxCell id="sufuKQDrphvWgy2W6EgG-72" value="MR в состоянии DRAFT" style="rhombus;whiteSpace=wrap;html=1;labelPosition=center;verticalLabelPosition=top;align=center;verticalAlign=bottom;" vertex="1" parent="sufuKQDrphvWgy2W6EgG-14">
          <mxGeometry x="2310" y="110" width="80" height="80" as="geometry" />
        </mxCell>
        <mxCell id="sufuKQDrphvWgy2W6EgG-77" value="" style="edgeStyle=orthogonalEdgeStyle;rounded=0;orthogonalLoop=1;jettySize=auto;html=1;" edge="1" parent="sufuKQDrphvWgy2W6EgG-14" source="sufuKQDrphvWgy2W6EgG-74" target="sufuKQDrphvWgy2W6EgG-76">
          <mxGeometry relative="1" as="geometry" />
        </mxCell>
        <mxCell id="sufuKQDrphvWgy2W6EgG-118" value="false" style="edgeLabel;html=1;align=center;verticalAlign=middle;resizable=0;points=[];" vertex="1" connectable="0" parent="sufuKQDrphvWgy2W6EgG-77">
          <mxGeometry x="-0.4776" y="-1" relative="1" as="geometry">
            <mxPoint as="offset" />
          </mxGeometry>
        </mxCell>
        <mxCell id="sufuKQDrphvWgy2W6EgG-103" value="" style="edgeStyle=orthogonalEdgeStyle;rounded=0;orthogonalLoop=1;jettySize=auto;html=1;" edge="1" parent="sufuKQDrphvWgy2W6EgG-14" source="sufuKQDrphvWgy2W6EgG-74" target="sufuKQDrphvWgy2W6EgG-96">
          <mxGeometry relative="1" as="geometry" />
        </mxCell>
        <mxCell id="sufuKQDrphvWgy2W6EgG-117" value="true" style="edgeLabel;html=1;align=center;verticalAlign=middle;resizable=0;points=[];" vertex="1" connectable="0" parent="sufuKQDrphvWgy2W6EgG-103">
          <mxGeometry x="-0.6776" y="1" relative="1" as="geometry">
            <mxPoint as="offset" />
          </mxGeometry>
        </mxCell>
        <mxCell id="sufuKQDrphvWgy2W6EgG-74" value="MR имеет комментарий на запрос ревью" style="rhombus;whiteSpace=wrap;html=1;labelPosition=center;verticalLabelPosition=top;align=center;verticalAlign=bottom;" vertex="1" parent="sufuKQDrphvWgy2W6EgG-14">
          <mxGeometry x="2550" y="110" width="80" height="80" as="geometry" />
        </mxCell>
        <mxCell id="sufuKQDrphvWgy2W6EgG-102" value="" style="edgeStyle=orthogonalEdgeStyle;rounded=0;orthogonalLoop=1;jettySize=auto;html=1;" edge="1" parent="sufuKQDrphvWgy2W6EgG-14" source="sufuKQDrphvWgy2W6EgG-76" target="sufuKQDrphvWgy2W6EgG-97">
          <mxGeometry relative="1" as="geometry" />
        </mxCell>
        <mxCell id="sufuKQDrphvWgy2W6EgG-120" value="false" style="edgeLabel;html=1;align=center;verticalAlign=middle;resizable=0;points=[];" vertex="1" connectable="0" parent="sufuKQDrphvWgy2W6EgG-102">
          <mxGeometry x="-0.8188" y="1" relative="1" as="geometry">
            <mxPoint as="offset" />
          </mxGeometry>
        </mxCell>
        <mxCell id="sufuKQDrphvWgy2W6EgG-76" value="У MR есть ветка(target_branch)" style="rhombus;whiteSpace=wrap;html=1;verticalAlign=bottom;labelPosition=center;verticalLabelPosition=top;align=center;" vertex="1" parent="sufuKQDrphvWgy2W6EgG-14">
          <mxGeometry x="2680" y="110" width="80" height="80" as="geometry" />
        </mxCell>
        <mxCell id="sufuKQDrphvWgy2W6EgG-80" value="" style="edgeStyle=orthogonalEdgeStyle;rounded=0;orthogonalLoop=1;jettySize=auto;html=1;" edge="1" parent="sufuKQDrphvWgy2W6EgG-14" source="sufuKQDrphvWgy2W6EgG-78" target="sufuKQDrphvWgy2W6EgG-74">
          <mxGeometry relative="1" as="geometry" />
        </mxCell>
        <mxCell id="sufuKQDrphvWgy2W6EgG-115" value="false" style="edgeLabel;html=1;align=center;verticalAlign=middle;resizable=0;points=[];" vertex="1" connectable="0" parent="sufuKQDrphvWgy2W6EgG-80">
          <mxGeometry x="-0.1292" relative="1" as="geometry">
            <mxPoint as="offset" />
          </mxGeometry>
        </mxCell>
        <mxCell id="sufuKQDrphvWgy2W6EgG-107" value="" style="edgeStyle=orthogonalEdgeStyle;rounded=0;orthogonalLoop=1;jettySize=auto;html=1;" edge="1" parent="sufuKQDrphvWgy2W6EgG-14" source="sufuKQDrphvWgy2W6EgG-78" target="sufuKQDrphvWgy2W6EgG-95">
          <mxGeometry relative="1" as="geometry" />
        </mxCell>
        <mxCell id="sufuKQDrphvWgy2W6EgG-116" value="true" style="edgeLabel;html=1;align=center;verticalAlign=middle;resizable=0;points=[];" vertex="1" connectable="0" parent="sufuKQDrphvWgy2W6EgG-107">
          <mxGeometry x="-0.3132" y="-1" relative="1" as="geometry">
            <mxPoint as="offset" />
          </mxGeometry>
        </mxCell>
        <mxCell id="sufuKQDrphvWgy2W6EgG-78" value="Проверка на готовность MR(уточнить у Вадима - это качели ли с тем что МР переводят по статусам&amp;nbsp; -&amp;nbsp;&lt;span style=&quot;font-family: &amp;quot;JetBrains Mono&amp;quot;, monospace; background-color: rgb(255, 255, 255);&quot;&gt;webhook&lt;/span&gt;&lt;span style=&quot;font-family: &amp;quot;JetBrains Mono&amp;quot;, monospace; background-color: rgb(255, 255, 255); color: rgb(8, 8, 8);&quot;&gt;.mr_just_marked_as_ready&lt;/span&gt;&lt;span style=&quot;background-color: initial;&quot;&gt;)&lt;/span&gt;" style="rhombus;whiteSpace=wrap;html=1;verticalAlign=bottom;labelPosition=center;verticalLabelPosition=top;align=left;fillColor=#f8cecc;strokeColor=#b85450;" vertex="1" parent="sufuKQDrphvWgy2W6EgG-14">
          <mxGeometry x="2430" y="60" width="80" height="80" as="geometry" />
        </mxCell>
        <mxCell id="sufuKQDrphvWgy2W6EgG-82" style="edgeStyle=orthogonalEdgeStyle;rounded=0;orthogonalLoop=1;jettySize=auto;html=1;entryX=0;entryY=0.5;entryDx=0;entryDy=0;entryPerimeter=0;" edge="1" parent="sufuKQDrphvWgy2W6EgG-14" source="sufuKQDrphvWgy2W6EgG-76">
          <mxGeometry relative="1" as="geometry">
            <mxPoint x="2810" y="150" as="targetPoint" />
          </mxGeometry>
        </mxCell>
        <mxCell id="sufuKQDrphvWgy2W6EgG-119" value="true" style="edgeLabel;html=1;align=center;verticalAlign=middle;resizable=0;points=[];" vertex="1" connectable="0" parent="sufuKQDrphvWgy2W6EgG-82">
          <mxGeometry x="-0.0851" y="-3" relative="1" as="geometry">
            <mxPoint as="offset" />
          </mxGeometry>
        </mxCell>
        <mxCell id="sufuKQDrphvWgy2W6EgG-101" value="" style="edgeStyle=orthogonalEdgeStyle;rounded=0;orthogonalLoop=1;jettySize=auto;html=1;" edge="1" parent="sufuKQDrphvWgy2W6EgG-14" source="sufuKQDrphvWgy2W6EgG-84" target="sufuKQDrphvWgy2W6EgG-98">
          <mxGeometry relative="1" as="geometry" />
        </mxCell>
        <mxCell id="sufuKQDrphvWgy2W6EgG-121" value="false" style="edgeLabel;html=1;align=center;verticalAlign=middle;resizable=0;points=[];" vertex="1" connectable="0" parent="sufuKQDrphvWgy2W6EgG-101">
          <mxGeometry x="-0.3149" y="4" relative="1" as="geometry">
            <mxPoint as="offset" />
          </mxGeometry>
        </mxCell>
        <mxCell id="sufuKQDrphvWgy2W6EgG-84" value="MR содержит измененные файлы" style="rhombus;whiteSpace=wrap;html=1;verticalAlign=bottom;labelPosition=center;verticalLabelPosition=top;align=center;" vertex="1" parent="sufuKQDrphvWgy2W6EgG-14">
          <mxGeometry x="2810" y="110" width="80" height="80" as="geometry" />
        </mxCell>
        <mxCell id="sufuKQDrphvWgy2W6EgG-91" style="edgeStyle=orthogonalEdgeStyle;rounded=0;orthogonalLoop=1;jettySize=auto;html=1;" edge="1" parent="sufuKQDrphvWgy2W6EgG-14" source="sufuKQDrphvWgy2W6EgG-85" target="sufuKQDrphvWgy2W6EgG-90">
          <mxGeometry relative="1" as="geometry" />
        </mxCell>
        <mxCell id="sufuKQDrphvWgy2W6EgG-85" value="Выбираем кодовнеров из файла в проекте и список стримов по измененным файлам.&lt;br&gt;Автора исключаем из этого списка" style="points=[[0.25,0,0],[0.5,0,0],[0.75,0,0],[1,0.25,0],[1,0.5,0],[1,0.75,0],[0.75,1,0],[0.5,1,0],[0.25,1,0],[0,0.75,0],[0,0.5,0],[0,0.25,0]];shape=mxgraph.bpmn.task;whiteSpace=wrap;rectStyle=rounded;size=10;html=1;container=1;expand=0;collapsible=0;taskMarker=abstract;" vertex="1" parent="sufuKQDrphvWgy2W6EgG-14">
          <mxGeometry x="2970" y="85" width="160" height="130" as="geometry" />
        </mxCell>
        <mxCell id="sufuKQDrphvWgy2W6EgG-86" value="true" style="edgeStyle=orthogonalEdgeStyle;rounded=0;orthogonalLoop=1;jettySize=auto;html=1;entryX=0;entryY=0.5;entryDx=0;entryDy=0;entryPerimeter=0;" edge="1" parent="sufuKQDrphvWgy2W6EgG-14" source="sufuKQDrphvWgy2W6EgG-84" target="sufuKQDrphvWgy2W6EgG-85">
          <mxGeometry relative="1" as="geometry" />
        </mxCell>
        <mxCell id="sufuKQDrphvWgy2W6EgG-100" value="" style="edgeStyle=orthogonalEdgeStyle;rounded=0;orthogonalLoop=1;jettySize=auto;html=1;" edge="1" parent="sufuKQDrphvWgy2W6EgG-14" source="sufuKQDrphvWgy2W6EgG-90" target="sufuKQDrphvWgy2W6EgG-99">
          <mxGeometry relative="1" as="geometry" />
        </mxCell>
        <mxCell id="sufuKQDrphvWgy2W6EgG-108" value="false" style="edgeLabel;html=1;align=center;verticalAlign=middle;resizable=0;points=[];" vertex="1" connectable="0" parent="sufuKQDrphvWgy2W6EgG-100">
          <mxGeometry x="-0.112" y="2" relative="1" as="geometry">
            <mxPoint as="offset" />
          </mxGeometry>
        </mxCell>
        <mxCell id="sufuKQDrphvWgy2W6EgG-90" value="Список получен" style="rhombus;whiteSpace=wrap;html=1;verticalAlign=bottom;labelPosition=center;verticalLabelPosition=top;align=center;" vertex="1" parent="sufuKQDrphvWgy2W6EgG-14">
          <mxGeometry x="3190" y="110" width="80" height="80" as="geometry" />
        </mxCell>
        <mxCell id="sufuKQDrphvWgy2W6EgG-92" value="Игнорируем MR" style="points=[[0.145,0.145,0],[0.5,0,0],[0.855,0.145,0],[1,0.5,0],[0.855,0.855,0],[0.5,1,0],[0.145,0.855,0],[0,0.5,0]];shape=mxgraph.bpmn.event;html=1;verticalLabelPosition=bottom;labelBackgroundColor=#ffffff;verticalAlign=top;align=center;perimeter=ellipsePerimeter;outlineConnect=0;aspect=fixed;outline=end;symbol=error;" vertex="1" parent="sufuKQDrphvWgy2W6EgG-14">
          <mxGeometry x="2045" y="220" width="50" height="50" as="geometry" />
        </mxCell>
        <mxCell id="sufuKQDrphvWgy2W6EgG-93" value="Игнорируем MR" style="points=[[0.145,0.145,0],[0.5,0,0],[0.855,0.145,0],[1,0.5,0],[0.855,0.855,0],[0.5,1,0],[0.145,0.855,0],[0,0.5,0]];shape=mxgraph.bpmn.event;html=1;verticalLabelPosition=bottom;labelBackgroundColor=#ffffff;verticalAlign=top;align=center;perimeter=ellipsePerimeter;outlineConnect=0;aspect=fixed;outline=end;symbol=error;" vertex="1" parent="sufuKQDrphvWgy2W6EgG-14">
          <mxGeometry x="2185" y="220" width="50" height="50" as="geometry" />
        </mxCell>
        <mxCell id="sufuKQDrphvWgy2W6EgG-94" value="Игнорируем MR" style="points=[[0.145,0.145,0],[0.5,0,0],[0.855,0.145,0],[1,0.5,0],[0.855,0.855,0],[0.5,1,0],[0.145,0.855,0],[0,0.5,0]];shape=mxgraph.bpmn.event;html=1;verticalLabelPosition=bottom;labelBackgroundColor=#ffffff;verticalAlign=top;align=center;perimeter=ellipsePerimeter;outlineConnect=0;aspect=fixed;outline=end;symbol=error;" vertex="1" parent="sufuKQDrphvWgy2W6EgG-14">
          <mxGeometry x="2325" y="220" width="50" height="50" as="geometry" />
        </mxCell>
        <mxCell id="sufuKQDrphvWgy2W6EgG-95" value="Игнорируем MR" style="points=[[0.145,0.145,0],[0.5,0,0],[0.855,0.145,0],[1,0.5,0],[0.855,0.855,0],[0.5,1,0],[0.145,0.855,0],[0,0.5,0]];shape=mxgraph.bpmn.event;html=1;verticalLabelPosition=bottom;labelBackgroundColor=#ffffff;verticalAlign=top;align=center;perimeter=ellipsePerimeter;outlineConnect=0;aspect=fixed;outline=end;symbol=error;" vertex="1" parent="sufuKQDrphvWgy2W6EgG-14">
          <mxGeometry x="2445" y="241" width="50" height="50" as="geometry" />
        </mxCell>
        <mxCell id="sufuKQDrphvWgy2W6EgG-96" value="Игнорируем MR" style="points=[[0.145,0.145,0],[0.5,0,0],[0.855,0.145,0],[1,0.5,0],[0.855,0.855,0],[0.5,1,0],[0.145,0.855,0],[0,0.5,0]];shape=mxgraph.bpmn.event;html=1;verticalLabelPosition=bottom;labelBackgroundColor=#ffffff;verticalAlign=top;align=center;perimeter=ellipsePerimeter;outlineConnect=0;aspect=fixed;outline=end;symbol=error;" vertex="1" parent="sufuKQDrphvWgy2W6EgG-14">
          <mxGeometry x="2565" y="241" width="50" height="50" as="geometry" />
        </mxCell>
        <mxCell id="sufuKQDrphvWgy2W6EgG-97" value="Игнорируем MR" style="points=[[0.145,0.145,0],[0.5,0,0],[0.855,0.145,0],[1,0.5,0],[0.855,0.855,0],[0.5,1,0],[0.145,0.855,0],[0,0.5,0]];shape=mxgraph.bpmn.event;html=1;verticalLabelPosition=bottom;labelBackgroundColor=#ffffff;verticalAlign=top;align=center;perimeter=ellipsePerimeter;outlineConnect=0;aspect=fixed;outline=end;symbol=error;" vertex="1" parent="sufuKQDrphvWgy2W6EgG-14">
          <mxGeometry x="2695" y="241" width="50" height="50" as="geometry" />
        </mxCell>
        <mxCell id="sufuKQDrphvWgy2W6EgG-98" value="Игнорируем MR" style="points=[[0.145,0.145,0],[0.5,0,0],[0.855,0.145,0],[1,0.5,0],[0.855,0.855,0],[0.5,1,0],[0.145,0.855,0],[0,0.5,0]];shape=mxgraph.bpmn.event;html=1;verticalLabelPosition=bottom;labelBackgroundColor=#ffffff;verticalAlign=top;align=center;perimeter=ellipsePerimeter;outlineConnect=0;aspect=fixed;outline=end;symbol=error;" vertex="1" parent="sufuKQDrphvWgy2W6EgG-14">
          <mxGeometry x="2825" y="241" width="50" height="50" as="geometry" />
        </mxCell>
        <mxCell id="sufuKQDrphvWgy2W6EgG-99" value="Игнорируем MR" style="points=[[0.145,0.145,0],[0.5,0,0],[0.855,0.145,0],[1,0.5,0],[0.855,0.855,0],[0.5,1,0],[0.145,0.855,0],[0,0.5,0]];shape=mxgraph.bpmn.event;html=1;verticalLabelPosition=bottom;labelBackgroundColor=#ffffff;verticalAlign=top;align=center;perimeter=ellipsePerimeter;outlineConnect=0;aspect=fixed;outline=end;symbol=error;" vertex="1" parent="sufuKQDrphvWgy2W6EgG-14">
          <mxGeometry x="3205" y="232" width="50" height="50" as="geometry" />
        </mxCell>
        <mxCell id="sufuKQDrphvWgy2W6EgG-122" value="Создание сообщения для запроса ревью. Минимальное количество ревьюеров = 3" style="points=[[0.25,0,0],[0.5,0,0],[0.75,0,0],[1,0.25,0],[1,0.5,0],[1,0.75,0],[0.75,1,0],[0.5,1,0],[0.25,1,0],[0,0.75,0],[0,0.5,0],[0,0.25,0]];shape=mxgraph.bpmn.task;whiteSpace=wrap;rectStyle=rounded;size=10;html=1;container=1;expand=0;collapsible=0;taskMarker=abstract;" vertex="1" parent="sufuKQDrphvWgy2W6EgG-14">
          <mxGeometry x="3330" y="110" width="120" height="80" as="geometry" />
        </mxCell>
        <mxCell id="sufuKQDrphvWgy2W6EgG-123" style="edgeStyle=orthogonalEdgeStyle;rounded=0;orthogonalLoop=1;jettySize=auto;html=1;entryX=0;entryY=0.5;entryDx=0;entryDy=0;entryPerimeter=0;" edge="1" parent="sufuKQDrphvWgy2W6EgG-14" source="sufuKQDrphvWgy2W6EgG-90" target="sufuKQDrphvWgy2W6EgG-122">
          <mxGeometry relative="1" as="geometry" />
        </mxCell>
        <mxCell id="sufuKQDrphvWgy2W6EgG-127" value="true" style="edgeLabel;html=1;align=center;verticalAlign=middle;resizable=0;points=[];" vertex="1" connectable="0" parent="sufuKQDrphvWgy2W6EgG-123">
          <mxGeometry x="0.2" relative="1" as="geometry">
            <mxPoint as="offset" />
          </mxGeometry>
        </mxCell>
        <mxCell id="sufuKQDrphvWgy2W6EgG-125" style="edgeStyle=orthogonalEdgeStyle;rounded=0;orthogonalLoop=1;jettySize=auto;html=1;entryX=0;entryY=0.5;entryDx=0;entryDy=0;entryPerimeter=0;" edge="1" parent="sufuKQDrphvWgy2W6EgG-14" source="sufuKQDrphvWgy2W6EgG-122">
          <mxGeometry relative="1" as="geometry">
            <mxPoint x="3510" y="150" as="targetPoint" />
          </mxGeometry>
        </mxCell>
        <mxCell id="sufuKQDrphvWgy2W6EgG-129" value="MR задевает &amp;gt; 1стрима" style="rhombus;whiteSpace=wrap;html=1;verticalAlign=bottom;labelPosition=center;verticalLabelPosition=top;align=center;" vertex="1" parent="sufuKQDrphvWgy2W6EgG-14">
          <mxGeometry x="3510" y="110" width="80" height="80" as="geometry" />
        </mxCell>
        <mxCell id="sufuKQDrphvWgy2W6EgG-138" value="" style="edgeStyle=orthogonalEdgeStyle;rounded=0;orthogonalLoop=1;jettySize=auto;html=1;" edge="1" parent="sufuKQDrphvWgy2W6EgG-14" source="sufuKQDrphvWgy2W6EgG-132" target="sufuKQDrphvWgy2W6EgG-137">
          <mxGeometry relative="1" as="geometry" />
        </mxCell>
        <mxCell id="sufuKQDrphvWgy2W6EgG-132" value="Проставляется&lt;br&gt;1 - trusted reviewers&lt;div&gt;и 1 из каждого задетого стрима&amp;nbsp;&lt;/div&gt;" style="points=[[0.25,0,0],[0.5,0,0],[0.75,0,0],[1,0.25,0],[1,0.5,0],[1,0.75,0],[0.75,1,0],[0.5,1,0],[0.25,1,0],[0,0.75,0],[0,0.5,0],[0,0.25,0]];shape=mxgraph.bpmn.task;whiteSpace=wrap;rectStyle=rounded;size=10;html=1;container=1;expand=0;collapsible=0;taskMarker=abstract;" vertex="1" parent="sufuKQDrphvWgy2W6EgG-14">
          <mxGeometry x="3672" y="110" width="120" height="80" as="geometry" />
        </mxCell>
        <mxCell id="sufuKQDrphvWgy2W6EgG-133" value="true" style="edgeStyle=orthogonalEdgeStyle;rounded=0;orthogonalLoop=1;jettySize=auto;html=1;entryX=0;entryY=0.5;entryDx=0;entryDy=0;entryPerimeter=0;" edge="1" parent="sufuKQDrphvWgy2W6EgG-14" source="sufuKQDrphvWgy2W6EgG-129" target="sufuKQDrphvWgy2W6EgG-132">
          <mxGeometry relative="1" as="geometry" />
        </mxCell>
        <mxCell id="sufuKQDrphvWgy2W6EgG-134" value="Проставляется&lt;br&gt;1 - trusted reviewers&lt;br&gt;и 2 из задетого стрима" style="points=[[0.25,0,0],[0.5,0,0],[0.75,0,0],[1,0.25,0],[1,0.5,0],[1,0.75,0],[0.75,1,0],[0.5,1,0],[0.25,1,0],[0,0.75,0],[0,0.5,0],[0,0.25,0]];shape=mxgraph.bpmn.task;whiteSpace=wrap;rectStyle=rounded;size=10;html=1;container=1;expand=0;collapsible=0;taskMarker=abstract;" vertex="1" parent="sufuKQDrphvWgy2W6EgG-14">
          <mxGeometry x="3672" y="241" width="120" height="80" as="geometry" />
        </mxCell>
        <mxCell id="sufuKQDrphvWgy2W6EgG-135" style="edgeStyle=orthogonalEdgeStyle;rounded=0;orthogonalLoop=1;jettySize=auto;html=1;entryX=0;entryY=0.5;entryDx=0;entryDy=0;entryPerimeter=0;" edge="1" parent="sufuKQDrphvWgy2W6EgG-14" source="sufuKQDrphvWgy2W6EgG-129" target="sufuKQDrphvWgy2W6EgG-134">
          <mxGeometry relative="1" as="geometry">
            <Array as="points">
              <mxPoint x="3550" y="280" />
              <mxPoint x="3645" y="280" />
              <mxPoint x="3645" y="281" />
            </Array>
          </mxGeometry>
        </mxCell>
        <mxCell id="sufuKQDrphvWgy2W6EgG-136" value="false" style="edgeLabel;html=1;align=center;verticalAlign=middle;resizable=0;points=[];" vertex="1" connectable="0" parent="sufuKQDrphvWgy2W6EgG-135">
          <mxGeometry x="0.3859" relative="1" as="geometry">
            <mxPoint y="1" as="offset" />
          </mxGeometry>
        </mxCell>
        <mxCell id="sufuKQDrphvWgy2W6EgG-141" value="" style="edgeStyle=orthogonalEdgeStyle;rounded=0;orthogonalLoop=1;jettySize=auto;html=1;" edge="1" parent="sufuKQDrphvWgy2W6EgG-14" source="sufuKQDrphvWgy2W6EgG-137" target="sufuKQDrphvWgy2W6EgG-140">
          <mxGeometry relative="1" as="geometry" />
        </mxCell>
        <mxCell id="sufuKQDrphvWgy2W6EgG-137" value="" style="points=[[0.25,0.25,0],[0.5,0,0],[0.75,0.25,0],[1,0.5,0],[0.75,0.75,0],[0.5,1,0],[0.25,0.75,0],[0,0.5,0]];shape=mxgraph.bpmn.gateway2;html=1;verticalLabelPosition=bottom;labelBackgroundColor=#ffffff;verticalAlign=top;align=center;perimeter=rhombusPerimeter;outlineConnect=0;outline=none;symbol=none;gwType=exclusive;" vertex="1" parent="sufuKQDrphvWgy2W6EgG-14">
          <mxGeometry x="3872" y="110" width="80" height="80" as="geometry" />
        </mxCell>
        <mxCell id="sufuKQDrphvWgy2W6EgG-139" style="edgeStyle=orthogonalEdgeStyle;rounded=0;orthogonalLoop=1;jettySize=auto;html=1;entryX=0.5;entryY=1;entryDx=0;entryDy=0;entryPerimeter=0;" edge="1" parent="sufuKQDrphvWgy2W6EgG-14" source="sufuKQDrphvWgy2W6EgG-134" target="sufuKQDrphvWgy2W6EgG-137">
          <mxGeometry relative="1" as="geometry" />
        </mxCell>
        <mxCell id="sufuKQDrphvWgy2W6EgG-143" value="" style="edgeStyle=orthogonalEdgeStyle;rounded=0;orthogonalLoop=1;jettySize=auto;html=1;entryX=0;entryY=0.5;entryDx=0;entryDy=0;entryPerimeter=0;" edge="1" parent="sufuKQDrphvWgy2W6EgG-14" source="sufuKQDrphvWgy2W6EgG-140" target="sufuKQDrphvWgy2W6EgG-150">
          <mxGeometry relative="1" as="geometry" />
        </mxCell>
        <mxCell id="sufuKQDrphvWgy2W6EgG-149" value="True" style="edgeLabel;html=1;align=center;verticalAlign=middle;resizable=0;points=[];" vertex="1" connectable="0" parent="sufuKQDrphvWgy2W6EgG-143">
          <mxGeometry x="-0.2167" y="1" relative="1" as="geometry">
            <mxPoint x="1" y="1" as="offset" />
          </mxGeometry>
        </mxCell>
        <mxCell id="sufuKQDrphvWgy2W6EgG-140" value="Сообщение создано" style="rhombus;whiteSpace=wrap;html=1;verticalAlign=bottom;labelBackgroundColor=#ffffff;labelPosition=center;verticalLabelPosition=top;align=center;" vertex="1" parent="sufuKQDrphvWgy2W6EgG-14">
          <mxGeometry x="4010" y="110" width="80" height="80" as="geometry" />
        </mxCell>
        <mxCell id="sufuKQDrphvWgy2W6EgG-142" value="В МР добавляется комментарий с запросом ревью" style="rounded=1;whiteSpace=wrap;html=1;verticalAlign=bottom;labelBackgroundColor=#ffffff;" vertex="1" parent="sufuKQDrphvWgy2W6EgG-14">
          <mxGeometry x="4270" y="20" width="120" height="60" as="geometry" />
        </mxCell>
        <mxCell id="sufuKQDrphvWgy2W6EgG-147" value="В МР добавляется лейбел стрима. Определяется по автору МР" style="whiteSpace=wrap;html=1;verticalAlign=bottom;rounded=1;labelBackgroundColor=#ffffff;" vertex="1" parent="sufuKQDrphvWgy2W6EgG-14">
          <mxGeometry x="4350" y="90" width="120" height="60" as="geometry" />
        </mxCell>
        <mxCell id="sufuKQDrphvWgy2W6EgG-151" style="edgeStyle=orthogonalEdgeStyle;rounded=0;orthogonalLoop=1;jettySize=auto;html=1;entryX=0;entryY=0.5;entryDx=0;entryDy=0;exitX=0.5;exitY=0;exitDx=0;exitDy=0;exitPerimeter=0;" edge="1" parent="sufuKQDrphvWgy2W6EgG-14" source="sufuKQDrphvWgy2W6EgG-150" target="sufuKQDrphvWgy2W6EgG-142">
          <mxGeometry relative="1" as="geometry" />
        </mxCell>
        <mxCell id="sufuKQDrphvWgy2W6EgG-152" value="" style="edgeStyle=orthogonalEdgeStyle;rounded=0;orthogonalLoop=1;jettySize=auto;html=1;" edge="1" parent="sufuKQDrphvWgy2W6EgG-14" source="sufuKQDrphvWgy2W6EgG-150" target="sufuKQDrphvWgy2W6EgG-147">
          <mxGeometry relative="1" as="geometry" />
        </mxCell>
        <mxCell id="sufuKQDrphvWgy2W6EgG-155" style="edgeStyle=orthogonalEdgeStyle;rounded=0;orthogonalLoop=1;jettySize=auto;html=1;entryX=0;entryY=0.5;entryDx=0;entryDy=0;entryPerimeter=0;exitX=0.5;exitY=1;exitDx=0;exitDy=0;exitPerimeter=0;" edge="1" parent="sufuKQDrphvWgy2W6EgG-14" source="sufuKQDrphvWgy2W6EgG-150" target="sufuKQDrphvWgy2W6EgG-156">
          <mxGeometry relative="1" as="geometry">
            <mxPoint x="4320" y="250" as="targetPoint" />
          </mxGeometry>
        </mxCell>
        <mxCell id="sufuKQDrphvWgy2W6EgG-150" value="" style="points=[[0.25,0.25,0],[0.5,0,0],[0.75,0.25,0],[1,0.5,0],[0.75,0.75,0],[0.5,1,0],[0.25,0.75,0],[0,0.5,0]];shape=mxgraph.bpmn.gateway2;html=1;verticalLabelPosition=bottom;labelBackgroundColor=#ffffff;verticalAlign=top;align=center;perimeter=rhombusPerimeter;outlineConnect=0;outline=none;symbol=none;gwType=parallel;" vertex="1" parent="sufuKQDrphvWgy2W6EgG-14">
          <mxGeometry x="4160" y="110" width="80" height="80" as="geometry" />
        </mxCell>
        <mxCell id="sufuKQDrphvWgy2W6EgG-156" value="Отправляются метрики по МР в DB" style="points=[[0.25,0,0],[0.5,0,0],[0.75,0,0],[1,0.25,0],[1,0.5,0],[1,0.75,0],[0.75,1,0],[0.5,1,0],[0.25,1,0],[0,0.75,0],[0,0.5,0],[0,0.25,0]];shape=mxgraph.bpmn.task;whiteSpace=wrap;rectStyle=rounded;size=10;html=1;container=1;expand=0;collapsible=0;taskMarker=abstract;" vertex="1" parent="sufuKQDrphvWgy2W6EgG-14">
          <mxGeometry x="4350" y="250" width="120" height="80" as="geometry" />
        </mxCell>
        <mxCell id="sufuKQDrphvWgy2W6EgG-160" value="Отправка уведомлений в мессенджеры" style="points=[[0.25,0,0],[0.5,0,0],[0.75,0,0],[1,0.25,0],[1,0.5,0],[1,0.75,0],[0.75,1,0],[0.5,1,0],[0.25,1,0],[0,0.75,0],[0,0.5,0],[0,0.25,0]];shape=mxgraph.bpmn.task;whiteSpace=wrap;rectStyle=rounded;size=10;html=1;container=1;expand=0;collapsible=0;taskMarker=abstract;" vertex="1" parent="sufuKQDrphvWgy2W6EgG-14">
          <mxGeometry x="4350" y="168" width="120" height="62" as="geometry" />
        </mxCell>
        <mxCell id="sufuKQDrphvWgy2W6EgG-161" style="edgeStyle=orthogonalEdgeStyle;rounded=0;orthogonalLoop=1;jettySize=auto;html=1;exitX=1;exitY=0.5;exitDx=0;exitDy=0;exitPerimeter=0;entryX=0;entryY=0.5;entryDx=0;entryDy=0;entryPerimeter=0;" edge="1" parent="sufuKQDrphvWgy2W6EgG-14" source="sufuKQDrphvWgy2W6EgG-150" target="sufuKQDrphvWgy2W6EgG-160">
          <mxGeometry relative="1" as="geometry" />
        </mxCell>
        <mxCell id="sufuKQDrphvWgy2W6EgG-159" value="Обращение к API WBRoboJune" style="points=[[0.25,0,0],[0.5,0,0],[0.75,0,0],[1,0.25,0],[1,0.5,0],[1,0.75,0],[0.75,1,0],[0.5,1,0],[0.25,1,0],[0,0.75,0],[0,0.5,0],[0,0.25,0]];shape=mxgraph.bpmn.task;whiteSpace=wrap;rectStyle=rounded;size=10;html=1;container=1;expand=0;collapsible=0;taskMarker=abstract;" vertex="1" parent="sufuKQDrphvWgy2W6EgG-14">
          <mxGeometry x="4500" y="164.5" width="120" height="69" as="geometry" />
        </mxCell>
        <mxCell id="sufuKQDrphvWgy2W6EgG-165" style="edgeStyle=orthogonalEdgeStyle;rounded=0;orthogonalLoop=1;jettySize=auto;html=1;entryX=0;entryY=0.5;entryDx=0;entryDy=0;entryPerimeter=0;" edge="1" parent="sufuKQDrphvWgy2W6EgG-14" source="sufuKQDrphvWgy2W6EgG-160" target="sufuKQDrphvWgy2W6EgG-159">
          <mxGeometry relative="1" as="geometry" />
        </mxCell>
        <mxCell id="sufuKQDrphvWgy2W6EgG-154" style="edgeStyle=orthogonalEdgeStyle;rounded=0;orthogonalLoop=1;jettySize=auto;html=1;entryX=0.5;entryY=1;entryDx=0;entryDy=0;entryPerimeter=0;dashed=1;dashPattern=8 8;" edge="1" parent="sufuKQDrphvWgy2W6EgG-11" source="sufuKQDrphvWgy2W6EgG-147" target="sufuKQDrphvWgy2W6EgG-153">
          <mxGeometry relative="1" as="geometry">
            <Array as="points">
              <mxPoint x="4410" y="340" />
              <mxPoint x="4470" y="340" />
            </Array>
          </mxGeometry>
        </mxCell>
        <mxCell id="sufuKQDrphvWgy2W6EgG-38" value="Grafana" style="swimlane;startSize=20;horizontal=0;html=1;whiteSpace=wrap;" vertex="1" parent="1">
          <mxGeometry x="10" y="750" width="5070" height="120" as="geometry" />
        </mxCell>
        <UserObject label="Dashboard" link="https://grafana.wb.ru/d/fdnufgv2r7g1sa/code-review?orgId=1&amp;from=now-24h&amp;to=now&amp;viewPanel=10&amp;var-project_ref=All&amp;var-author_stream=All&amp;var-none_stream=%2Ano%20stream&amp;var-gitlab_host=https:%2F%2Fgitlab.wildberries.ru%2F&amp;var-bucket_name=merge-requests&amp;var-aggregate_window_every=1d&amp;var-require_approve_count=3&amp;var-merged_without_approves_by=All" id="sufuKQDrphvWgy2W6EgG-163">
          <mxCell style="points=[[0.25,0,0],[0.5,0,0],[0.75,0,0],[1,0.25,0],[1,0.5,0],[1,0.75,0],[0.75,1,0],[0.5,1,0],[0.25,1,0],[0,0.75,0],[0,0.5,0],[0,0.25,0]];shape=mxgraph.bpmn.task;whiteSpace=wrap;rectStyle=rounded;size=10;html=1;container=1;expand=0;collapsible=0;taskMarker=service;" vertex="1" parent="sufuKQDrphvWgy2W6EgG-38">
            <mxGeometry x="4350" y="20" width="120" height="80" as="geometry" />
          </mxCell>
        </UserObject>
        <mxCell id="sufuKQDrphvWgy2W6EgG-37" value="inFluxDB" style="swimlane;startSize=20;horizontal=0;html=1;whiteSpace=wrap;" vertex="1" parent="1">
          <mxGeometry x="10" y="630" width="5070" height="120" as="geometry" />
        </mxCell>
        <mxCell id="sufuKQDrphvWgy2W6EgG-157" value="infuxDB" style="shape=datastore;html=1;labelPosition=center;verticalLabelPosition=middle;align=center;verticalAlign=middle;" vertex="1" parent="sufuKQDrphvWgy2W6EgG-37">
          <mxGeometry x="4360" y="10" width="100" height="100" as="geometry" />
        </mxCell>
        <mxCell id="sufuKQDrphvWgy2W6EgG-158" value="" style="edgeStyle=orthogonalEdgeStyle;rounded=0;orthogonalLoop=1;jettySize=auto;html=1;dashed=1;dashPattern=8 8;" edge="1" parent="1" source="sufuKQDrphvWgy2W6EgG-156" target="sufuKQDrphvWgy2W6EgG-157">
          <mxGeometry relative="1" as="geometry" />
        </mxCell>
        <mxCell id="sufuKQDrphvWgy2W6EgG-162" value="" style="points=[[0.25,0,0],[0.5,0,0],[0.75,0,0],[1,0.25,0],[1,0.5,0],[1,0.75,0],[0.75,1,0],[0.5,1,0],[0.25,1,0],[0,0.75,0],[0,0.5,0],[0,0.25,0]];shape=mxgraph.bpmn.task;whiteSpace=wrap;rectStyle=rounded;size=10;html=1;container=1;expand=0;collapsible=0;taskMarker=service;" vertex="1" parent="1">
          <mxGeometry x="4160" y="470" width="120" height="80" as="geometry" />
        </mxCell>
        <mxCell id="sufuKQDrphvWgy2W6EgG-164" value="" style="edgeStyle=orthogonalEdgeStyle;rounded=0;orthogonalLoop=1;jettySize=auto;html=1;dashed=1;dashPattern=8 8;" edge="1" parent="1" source="sufuKQDrphvWgy2W6EgG-163" target="sufuKQDrphvWgy2W6EgG-157">
          <mxGeometry relative="1" as="geometry" />
        </mxCell>
        <mxCell id="sufuKQDrphvWgy2W6EgG-166" value="RoboJune" style="swimlane;startSize=20;horizontal=0;html=1;whiteSpace=wrap;" vertex="1" parent="1">
          <mxGeometry x="10" y="870" width="5070" height="240" as="geometry" />
        </mxCell>
        <mxCell id="sufuKQDrphvWgy2W6EgG-171" style="edgeStyle=orthogonalEdgeStyle;rounded=0;orthogonalLoop=1;jettySize=auto;html=1;" edge="1" parent="sufuKQDrphvWgy2W6EgG-166" source="sufuKQDrphvWgy2W6EgG-168" target="sufuKQDrphvWgy2W6EgG-170">
          <mxGeometry relative="1" as="geometry" />
        </mxCell>
        <mxCell id="sufuKQDrphvWgy2W6EgG-168" value="WBRoboJune" style="points=[[0.25,0,0],[0.5,0,0],[0.75,0,0],[1,0.25,0],[1,0.5,0],[1,0.75,0],[0.75,1,0],[0.5,1,0],[0.25,1,0],[0,0.75,0],[0,0.5,0],[0,0.25,0]];shape=mxgraph.bpmn.task;whiteSpace=wrap;rectStyle=rounded;size=10;html=1;container=1;expand=0;collapsible=0;taskMarker=service;" vertex="1" parent="sufuKQDrphvWgy2W6EgG-166">
          <mxGeometry x="4680" y="80" width="120" height="80" as="geometry" />
        </mxCell>
        <mxCell id="sufuKQDrphvWgy2W6EgG-170" value="" style="points=[[0.25,0.25,0],[0.5,0,0],[0.75,0.25,0],[1,0.5,0],[0.75,0.75,0],[0.5,1,0],[0.25,0.75,0],[0,0.5,0]];shape=mxgraph.bpmn.gateway2;html=1;verticalLabelPosition=bottom;labelBackgroundColor=#ffffff;verticalAlign=top;align=center;perimeter=rhombusPerimeter;outlineConnect=0;outline=none;symbol=none;gwType=parallel;" vertex="1" parent="sufuKQDrphvWgy2W6EgG-166">
          <mxGeometry x="4840" y="95" width="50" height="50" as="geometry" />
        </mxCell>
        <mxCell id="sufuKQDrphvWgy2W6EgG-172" value="Telegram" style="points=[[0.145,0.145,0],[0.5,0,0],[0.855,0.145,0],[1,0.5,0],[0.855,0.855,0],[0.5,1,0],[0.145,0.855,0],[0,0.5,0]];shape=mxgraph.bpmn.event;html=1;verticalLabelPosition=bottom;labelBackgroundColor=#ffffff;verticalAlign=top;align=center;perimeter=ellipsePerimeter;outlineConnect=0;aspect=fixed;outline=end;symbol=message;" vertex="1" parent="sufuKQDrphvWgy2W6EgG-166">
          <mxGeometry x="4952" y="10" width="50" height="50" as="geometry" />
        </mxCell>
        <mxCell id="sufuKQDrphvWgy2W6EgG-173" value="MatterMost" style="points=[[0.145,0.145,0],[0.5,0,0],[0.855,0.145,0],[1,0.5,0],[0.855,0.855,0],[0.5,1,0],[0.145,0.855,0],[0,0.5,0]];shape=mxgraph.bpmn.event;html=1;verticalLabelPosition=bottom;labelBackgroundColor=#ffffff;verticalAlign=top;align=center;perimeter=ellipsePerimeter;outlineConnect=0;aspect=fixed;outline=end;symbol=message;" vertex="1" parent="sufuKQDrphvWgy2W6EgG-166">
          <mxGeometry x="4952" y="95" width="50" height="50" as="geometry" />
        </mxCell>
        <mxCell id="sufuKQDrphvWgy2W6EgG-174" value="RocketChat" style="points=[[0.145,0.145,0],[0.5,0,0],[0.855,0.145,0],[1,0.5,0],[0.855,0.855,0],[0.5,1,0],[0.145,0.855,0],[0,0.5,0]];shape=mxgraph.bpmn.event;html=1;verticalLabelPosition=bottom;labelBackgroundColor=#ffffff;verticalAlign=top;align=center;perimeter=ellipsePerimeter;outlineConnect=0;aspect=fixed;outline=end;symbol=message;" vertex="1" parent="sufuKQDrphvWgy2W6EgG-166">
          <mxGeometry x="4952" y="170" width="50" height="50" as="geometry" />
        </mxCell>
        <mxCell id="sufuKQDrphvWgy2W6EgG-175" style="edgeStyle=orthogonalEdgeStyle;rounded=0;orthogonalLoop=1;jettySize=auto;html=1;entryX=0;entryY=0.5;entryDx=0;entryDy=0;entryPerimeter=0;" edge="1" parent="sufuKQDrphvWgy2W6EgG-166" source="sufuKQDrphvWgy2W6EgG-170" target="sufuKQDrphvWgy2W6EgG-172">
          <mxGeometry relative="1" as="geometry" />
        </mxCell>
        <mxCell id="sufuKQDrphvWgy2W6EgG-176" style="edgeStyle=orthogonalEdgeStyle;rounded=0;orthogonalLoop=1;jettySize=auto;html=1;entryX=0;entryY=0.5;entryDx=0;entryDy=0;entryPerimeter=0;" edge="1" parent="sufuKQDrphvWgy2W6EgG-166" source="sufuKQDrphvWgy2W6EgG-170" target="sufuKQDrphvWgy2W6EgG-173">
          <mxGeometry relative="1" as="geometry" />
        </mxCell>
        <mxCell id="sufuKQDrphvWgy2W6EgG-177" style="edgeStyle=orthogonalEdgeStyle;rounded=0;orthogonalLoop=1;jettySize=auto;html=1;entryX=0;entryY=0.5;entryDx=0;entryDy=0;entryPerimeter=0;" edge="1" parent="sufuKQDrphvWgy2W6EgG-166" source="sufuKQDrphvWgy2W6EgG-170" target="sufuKQDrphvWgy2W6EgG-174">
          <mxGeometry relative="1" as="geometry" />
        </mxCell>
        <mxCell id="sufuKQDrphvWgy2W6EgG-169" style="edgeStyle=orthogonalEdgeStyle;rounded=0;orthogonalLoop=1;jettySize=auto;html=1;entryX=0;entryY=0.5;entryDx=0;entryDy=0;entryPerimeter=0;dashed=1;dashPattern=8 8;" edge="1" parent="1" source="sufuKQDrphvWgy2W6EgG-159" target="sufuKQDrphvWgy2W6EgG-168">
          <mxGeometry relative="1" as="geometry" />
        </mxCell>
      </root>
    </mxGraphModel>
  </diagram>
</mxfile>
